<svg xmlns:xlink="http://www.w3.org/1999/xlink" xmlns="http://www.w3.org/2000/svg" style="display: none;">

    <symbol id="bouvet-logo-orange" viewBox="0 0 207 55">
        <title>Bouvet logo</title>
        <g fill-rule="nonzero" fill="#FF6400">
            <path d="M199.658.107h-7.461v40.957c.02 7.5 6.074 13.613 13.525 13.711h1.025v-7.471h-.85c-3.428 0-6.23-2.812-6.24-6.26V26.748h7.09v-7.476h-7.09V.107h.001zM145.703 19.253c-1.299 3.33-2.871 7.495-4.473 11.523-2.598 6.533-5.137 13.234-5.762 14.807-.684-1.514-3.621-8.322-6.541-14.807-1.865-4.135-3.645-8.369-5.07-11.523h-8.193l5.077 11.523 8.897 20.211c.664 1.396 2.236 3.779 5.693 3.896 1.602.059 4.512-.273 5.937-3.672l8.008-20.435 4.453-11.523h-8.026zM171.328 47.266c-5.732 0-10.41-4.713-10.41-10.508 0-2.223.693-4.287 1.865-5.982 1.885-2.725 5.02-4.516 8.545-4.516 2.549 0 4.854.938 6.66 2.465l-.029.016-3.525 2.035-4.863 2.809-.01-.01a3.745 3.745 0 0 0-1.367 5.107 3.747 3.747 0 0 0 5.107 1.367l12.256-7.037-.02-.01a3.72 3.72 0 0 0 1.729-2.227 3.684 3.684 0 0 0-.361-2.871c-.615-1.084-1.357-2.07-2.168-2.998l-.049-.049c-3.281-3.711-8.037-6.069-13.359-6.069-7.764 0-14.394 5.015-16.865 11.987a18.117 18.117 0 0 0-1.025 5.982c0 9.922 8.037 17.979 17.891 17.979 7.432 0 13.818-4.57 16.524-11.045l-6.875-2.965c-1.555 3.835-5.286 6.54-9.651 6.54zM105.225 30.776v6.856c0 5.309-4.277 9.635-9.541 9.635-5.273 0-9.561-4.326-9.561-9.635v-18.36h-7.476v18.359c0 9.439 7.642 17.105 17.036 17.105 9.375 0 17.012-7.666 17.012-17.105V19.272h-7.471v11.504h.001zM57.012 18.691c-7.803 0-14.458 5.063-16.894 12.084a17.822 17.822 0 0 0-.996 5.889c0 9.918 8.032 17.975 17.891 17.975 9.878 0 17.91-8.057 17.91-17.975 0-2.061-.356-4.043-.996-5.889-2.438-7.02-9.093-12.084-16.915-12.084zm0 28.487c-5.737 0-10.41-4.717-10.41-10.514a10.5 10.5 0 0 1 1.797-5.889c1.875-2.778 5.039-4.609 8.613-4.609 3.589 0 6.753 1.831 8.633 4.609a10.465 10.465 0 0 1 1.802 5.889c-.001 5.797-4.678 10.514-10.435 10.514zM17.895 18.794A17.699 17.699 0 0 0 7.47 22.178V0H0v36.768c0 9.922 8.032 17.979 17.895 17.979 9.878 0 17.9-8.057 17.9-17.979 0-2.1-.366-4.117-1.03-5.992-2.46-6.972-9.091-11.982-16.87-11.982zm0 28.482c-5.742 0-10.425-4.713-10.425-10.508 0-2.227.698-4.293 1.88-5.992 1.885-2.719 5.015-4.501 8.545-4.501 3.54 0 6.675 1.783 8.56 4.501a10.464 10.464 0 0 1 1.88 5.992c0 5.795-4.683 10.508-10.44 10.508z"/>
        </g>
    </symbol>

    <symbol id="instagram" viewBox="0 0 44 44">
        <title>Instagram icon</title>
        <g transform="translate(.002)" fill-rule="nonzero" fill="currentColor">
            <path d="M42.765 7.594c-.559-1.444-1.303-2.667-2.522-3.89-1.218-1.224-2.437-1.971-3.875-2.532C34.98.63 33.372.255 31.054.152c-2.336-.101-3.08-.135-9.037-.135-5.957 0-6.702.017-9.037.136-2.335.102-3.926.476-5.314 1.02-1.438.56-2.657 1.307-3.875 2.53-1.219 1.224-1.963 2.447-2.522 3.89C.728 8.988.355 10.602.254 12.929.152 15.273.118 16.02.118 22c0 5.98.017 6.727.136 9.072.101 2.344.474 3.941 1.015 5.334.559 1.444 1.303 2.667 2.522 3.89 1.218 1.224 2.437 1.971 3.875 2.532 1.388.543 2.996.917 5.314 1.02 2.335.101 3.08.135 9.037.135 5.957 0 6.701-.017 9.037-.136 2.335-.102 3.926-.476 5.314-1.02 1.438-.56 2.657-1.307 3.875-2.53 1.219-1.224 1.963-2.447 2.522-3.89.541-1.394.913-3.008 1.015-5.335.102-2.345.135-3.092.135-9.072 0-5.98-.017-6.727-.135-9.072-.102-2.344-.474-3.941-1.015-5.334zm-2.928 23.29c-.102 2.141-.457 3.314-.762 4.078a6.811 6.811 0 0 1-1.641 2.531c-.762.765-1.49 1.24-2.522 1.648-.778.306-1.929.663-4.061.765-2.319.102-2.996.136-8.851.136s-6.55-.017-8.85-.136c-2.133-.102-3.3-.459-4.062-.765-1.016-.39-1.76-.883-2.522-1.648-.761-.764-1.235-1.495-1.641-2.53-.305-.782-.66-1.938-.762-4.078-.101-2.327-.135-3.024-.135-8.885s.017-6.575.135-8.885c.102-2.14.457-3.313.762-4.077.389-1.02.88-1.767 1.641-2.531.762-.765 1.49-1.24 2.522-1.648.778-.306 1.929-.663 4.061-.765 2.319-.102 3.013-.136 8.851-.136 5.838 0 6.55.017 8.85.136 2.133.102 3.3.459 4.062.765 1.016.39 1.76.883 2.522 1.648.761.764 1.235 1.495 1.641 2.53.305.782.66 1.938.762 4.078.101 2.327.135 3.024.135 8.885s-.034 6.575-.135 8.885z"/>
            <path d="M22 10.703c-6.21 0-11.254 5.062-11.254 11.297S15.79 33.297 22 33.297c6.21 0 11.254-5.062 11.254-11.297S28.21 10.703 22 10.703zm0 18.636c-4.028 0-7.31-3.279-7.31-7.339 0-4.043 3.265-7.339 7.31-7.339S29.31 17.94 29.31 22c0 4.043-3.282 7.339-7.31 7.339z"/>
            <ellipse cx="33.694" cy="10.261" rx="2.623" ry="2.633"/>
        </g>
    </symbol>

    <symbol id="linkedin" viewBox="0 0 44 44">
        <title>LinkedIn icon</title>
        <path d="M4.372.088A4.368 4.368 0 0 0 0 4.47v35.06a4.368 4.368 0 0 0 4.372 4.382H39.35a4.368 4.368 0 0 0 4.373-4.382V4.47A4.368 4.368 0 0 0 39.349.088H4.372zm7.862 9.271a3.039 3.039 0 0 1 3.036 3.043 3.041 3.041 0 0 1-3.036 3.046 3.041 3.041 0 0 1-3.036-3.046 3.039 3.039 0 0 1 3.036-3.043zm15.904 7.927c.342.001.692.018 1.164.047 2.29.141 4.84 1.935 4.916 6.138.061 3.461.043 8.947.043 10.967h-5.205c0-2.066.022-6.335.022-9.354 0-1.374-.616-3.221-2.807-3.221-2.413 0-3 2.248-3 3.221 0 2.899-.025 7.516-.025 9.354h-5.175c0-3.098.032-13.73.032-16.733 2.673 0 3.952-.005 4.93-.005 0 .983-.008 1.64-.008 2.358.816-1.652 3.046-2.687 4-2.736.436-.023.77-.037 1.113-.036zm-18.503.485h5.19V34.43h-5.19V17.77z"
              fill-rule="nonzero" fill="currentColor"/>
    </symbol>

    <symbol id="twitter" viewBox="0 0 44 36">
        <title>Twitter icon</title>
        <path d="M13.874 35.51c16.542 0 25.59-13.617 25.59-25.417 0-.382 0-.765-.028-1.16a18.224 18.224 0 0 0 4.483-4.63 17.807 17.807 0 0 1-5.17 1.406 8.963 8.963 0 0 0 3.96-4.944 18.191 18.191 0 0 1-5.706 2.171c-3.41-3.592-9.103-3.77-12.72-.382a8.894 8.894 0 0 0-2.599 8.536A25.593 25.593 0 0 1 3.15 1.762c-2.393 4.083-1.169 9.3 2.777 11.923a8.924 8.924 0 0 1-4.083-1.12v.11c0 4.247 3.025 7.907 7.219 8.754a9.043 9.043 0 0 1-4.057.15 8.998 8.998 0 0 0 8.402 6.2A18.175 18.175 0 0 1 2.24 31.619c-.715 0-1.43-.041-2.145-.123a25.563 25.563 0 0 0 13.778 4.015"
              fill-rule="nonzero" fill="currentColor"/>
    </symbol>

    <symbol id="facebook" viewBox="0 0 44 44">
        <title>Facebook icon</title>
        <path d="M44 7.333C44 3.471 40.529 0 36.667 0H7.333C3.471 0 0 3.471 0 7.333v29.334C0 40.529 3.471 44 7.333 44H22V27.378h-5.378v-7.334H22V17.21c0-4.938 3.716-9.387 8.262-9.387h5.916v7.334h-5.916c-.635 0-1.418.782-1.418 1.955v2.933h7.334v7.334h-7.334V44h7.823C40.529 44 44 40.529 44 36.667V7.333z"
              fill-rule="nonzero" fill="currentColor"/>
    </symbol>

    <symbol id="youtube" viewBox="0 0 44 36">
        <title>YouTube icon</title>
        <path d="M39.6.88C38.28.44 30.14 0 22 0S5.72.44 4.4.88C.88 1.98 0 9.68 0 17.6c0 7.92.88 15.62 4.4 16.72 1.32.44 9.46.88 17.6.88s16.28-.44 17.6-.88c3.52-1.1 4.4-8.8 4.4-16.72 0-7.92-.88-15.62-4.4-16.72zm-22 26.62V7.7l13.2 9.9-13.2 9.9z"
              fill-rule="nonzero" fill="currentColor"/>
    </symbol>

    <symbol id="other" viewBox="0 0 44 44">
        <title>General website icon</title>
        <g fill-rule="nonzero" fill="currentColor">
            <path d="M41.983 0H2.017C.917 0 0 .917 0 2.017v39.966C0 43.083.917 44 2.017 44h39.966c1.1 0 2.017-.917 2.017-2.017V2.017C44 .917 43.083 0 41.983 0zm-1.65 40.333H3.667v-27.5h36.666v27.5zm0-29.333H3.667V3.667h36.666V11z"/>
            <circle cx="7.333" cy="7.333" r="1.833"/>
            <circle cx="12.833" cy="7.333" r="1.833"/>
            <ellipse cx="18.333" cy="7.333" rx="1.833" ry="1.833"/>
        </g>
    </symbol>

    <symbol id="presentation-screen" viewBox="0 0 69 70">
        <title>Presentation screen icon</title>
        <g fill="currentColor" fill-rule="evenodd">
            <path d="M17.983 37.768a1.984 1.984 0 0 1-1.696-3.013l7.75-12.801a1.985 1.985 0 0 1 1.633-.955 1.964 1.964 0 0 1 1.692.848l4.443 6.373 5.354-5.583a1.983 1.983 0 0 1 2.724-.132l4.313 3.703 6.638-16.947a1.984 1.984 0 1 1 3.694 1.448l-7.657 19.55a1.981 1.981 0 0 1-3.139.78l-5.01-4.3-5.728 5.974a1.986 1.986 0 0 1-3.06-.24l-4.082-5.854-6.171 10.192a1.983 1.983 0 0 1-1.698.957M49.871 65.482l-12.956-9.915L36.911 51h-3.968l.005 4.404-13.17 10.078a1.983 1.983 0 1 0 2.412 3.151l10.762-8.237.008 6.721a1.984 1.984 0 0 0 1.984 1.982h.002a1.984 1.984 0 0 0 1.982-1.986l-.008-6.545 10.54 8.065a1.98 1.98 0 0 0 2.78-.37c.666-.87.5-2.116-.369-2.78"/>
            <path d="M66.501 0H1.984a1.984 1.984 0 0 0 0 3.968h1.553v35.024c0 4.365 3.57 7.936 7.935 7.936h45.612c4.365 0 7.936-3.571 7.936-7.936V3.968H66.5a1.985 1.985 0 0 0 0-3.968zm-5.449 38.992a3.972 3.972 0 0 1-3.968 3.968H11.472a3.972 3.972 0 0 1-3.968-3.968V3.968h53.548v35.024z"/>
        </g>
    </symbol>

    <symbol id="speech-bubble" viewBox="0 0 71 68">
        <title>Speech bubble icon</title>
        <path d="M15.231 57.882a11.23 11.23 0 0 0-.006.309 2 2 0 0 1-3.806 1.099 1.98 1.98 0 0 1-.18-.713 3.802 3.802 0 0 1-.013-.283c-.002-.142 0-.312.007-.532.005-.171.012-.367.024-.652l.032-.771c.03-.759.049-1.348.057-1.92.01-.804-.002-1.48-.04-2.01H5.164c-2.769 0-5.177-2.85-5.164-5.42L.007 6.01A6.011 6.011 0 0 1 6.012 0h57.99a6.002 6.002 0 0 1 6.005 6.01v40.98c0 3.317-2.684 6.01-5.994 6.01 0 0-34.309.09-34.357.137a5891.043 5891.043 0 0 0-7.75 7.696c-2.484 2.47-4.525 4.51-5.974 5.966a2 2 0 1 1-2.836-2.82c1.454-1.463 3.5-3.506 6.049-6.042a5171.777 5171.777 0 0 1 8.42-8.358A2 2 0 0 1 28.97 49h35.042c1.098 0 1.994-.9 1.994-2.01V6.01c0-1.115-.894-2.01-2.004-2.01H6.012a2.012 2.012 0 0 0-2.005 2.01L4 47c-.002.494.771 1.41 1.164 1.41h7.497c1.127 0 1.826.674 2.205 1.556.18.415.287.885.36 1.448.104.802.136 1.811.12 3.06a75.565 75.565 0 0 1-.06 2.025l-.032.775-.023.608zM13.718 16.5a1.5 1.5 0 0 1 0-3h42.527a1.5 1.5 0 0 1 0 3H13.718zm-.204 10a1.5 1.5 0 0 1 0-3H56.04a1.5 1.5 0 0 1 0 3H13.514zm0 10a1.5 1.5 0 0 1 0-3h18.704a1.5 1.5 0 0 1 0 3H13.514zm26 0a1.5 1.5 0 0 1 0-3h5.791a1.5 1.5 0 0 1 0 3h-5.791z"
              fill-rule="nonzero" fill="currentColor"/>
    </symbol>

    <symbol id="graduation-hat" viewBox="0 0 109 68">
        <title>Graduation hat icon</title>
        <g transform="translate(2 2)" stroke="currentColor" stroke-width="4" fill="none" fill-rule="evenodd">
            <path stroke-linecap="round" stroke-linejoin="round"
                  d="M49.887 45.821L98.908 23.16 49.671.555.484 22.878z"/>
            <path d="M24.971 41.386s-.14 5.497.097 10.261c.239 4.764 12.888 11.504 25.887 11.504 12.998 0 24.81-7.65 24.678-11.782-.131-4.132.089-9.974.089-9.974"
                  stroke-linecap="round" stroke-linejoin="round"/>
            <path d="M98.736 24.874v12.252" stroke-linecap="round"/>
            <ellipse cx="98.736" cy="41.386" rx="3.587" ry="3.587"/>
            <path stroke-linecap="round" stroke-linejoin="round"
                  d="M93.302 61.643H104.515l-3.851-16.124-3.294.146-2.534 9.95"/>
        </g>
    </symbol>

    <symbol id="document" viewBox="0 0 37 47">
        <title>Document icon</title>
        <g fill="currentColor" fill-rule="evenodd">
            <path d="M32.454 0H11.986l-.053.03a1.388 1.388 0 0 0-.867.327L.5 9.348a1.393 1.393 0 0 0-.483.922L0 10.268V42.42c0 2.2 1.8 4 4 4h28.454c2.2 0 4-1.8 4-4V4c0-2.2-1.8-4-4-4zm1.2 42.42c0 .65-.549 1.2-1.2 1.2H3.999c-.65 0-1.2-.55-1.2-1.2V11.069l8.782-7.474v8.22H7.2v2.8h7.173L14.379 2.8h18.075c.651 0 1.2.55 1.2 1.2v38.42z"/>
            <path d="M28.156 23.8H8.4a1.4 1.4 0 1 1 0-2.8h19.756a1.4 1.4 0 0 1 0 2.8M28.156 35.8H8.4a1.4 1.4 0 0 1 0-2.8h19.756a1.4 1.4 0 0 1 0 2.8M28.156 29.8H8.4a1.4 1.4 0 0 1 0-2.8h19.756a1.4 1.4 0 0 1 0 2.8"/>
        </g>
    </symbol>

    <symbol id="document-check" viewBox="0 0 50 47">
        <title>Document with checkmark icon</title>
        <g fill="currentColor" fill-rule="evenodd">
            <path d="M6 28h2.8v2.8H6zM6 21h2.8v2.8H6zM6 34h2.8v2.8H6z"/>
            <path d="M36.453 10.638V4c0-2.2-1.8-4-4-4H11.989l-.103.002c-.307.008-.567.14-.82.355L.5 9.349a1.396 1.396 0 0 0-.482.921L0 10.377V42.42c0 2.2 1.8 4 4 4h28.454c2.2 0 4-1.8 4-4v-1.434a15.214 15.214 0 0 1-2.8-.574v2.008c0 .65-.549 1.2-1.2 1.2H3.999c-.65 0-1.2-.55-1.2-1.2V11.069l8.78-7.474v8.22H7.2v2.8h7.174L14.379 2.8h18.075c.651 0 1.2.55 1.2 1.2v7.212a15.214 15.214 0 0 1 2.8-.574"/>
            <path d="M12 30.8h11.058c-.283-.9-.477-1.838-.588-2.8H12v2.8M12 23.8h10.485c.118-.963.32-1.9.61-2.8H12v2.8M12 36.8h15.066a15.342 15.342 0 0 1-2.297-2.8H12v2.8M37.613 31.302L32 26.74l1.765-2.173 3.388 2.753L42.04 21l2.214 1.714-6.64 8.588"/>
            <path d="M37.465 37.934C30.592 37.934 25 32.342 25 25.467 25 18.593 30.592 13 37.465 13s12.464 5.593 12.464 12.467c0 6.875-5.59 12.467-12.464 12.467zm0-22.134c-5.33 0-9.666 4.337-9.666 9.667s4.336 9.667 9.666 9.667c5.329 0 9.665-4.336 9.665-9.667 0-5.33-4.336-9.667-9.665-9.667z"/>
        </g>
    </symbol>

    <symbol id="coffee-croissant" viewBox="0 0 65 52">
        <title>Coffee and croissant icon</title>
        <g fill="currentColor" fill-rule="evenodd">
            <path d="M47.217 44.611h9.915v-2.8H46.208c.412.875.77 1.818 1.009 2.8M35.399 6.57c.21.247.452.481.721.705.192.251.304.5.304.73 0 .4-.307.857-.867 1.286a1.4 1.4 0 0 0 1.703 2.222c1.266-.97 1.963-2.216 1.963-3.508 0-.867-.32-1.71-.91-2.467a1.357 1.357 0 0 0-.139-.173 5.773 5.773 0 0 0-.719-.704c-.194-.252-.305-.501-.305-.731 0-.401.307-.857.866-1.285A1.4 1.4 0 1 0 36.315.422c-1.267.97-1.965 2.215-1.965 3.507 0 .868.32 1.713.911 2.47.042.06.086.117.138.17M43.546 6.576c.206.243.445.474.71.694.195.253.309.504.309.735 0 .4-.308.857-.867 1.286a1.4 1.4 0 0 0 1.703 2.222c1.266-.97 1.963-2.216 1.963-3.508 0-.86-.316-1.699-.897-2.45a1.348 1.348 0 0 0-.157-.197 5.898 5.898 0 0 0-.71-.693c-.195-.253-.309-.503-.309-.735 0-.401.308-.857.866-1.285A1.4 1.4 0 0 0 44.456.422c-1.267.97-1.964 2.215-1.964 3.507 0 .861.316 1.7.898 2.453.045.068.097.133.156.194M41.353 38.528c.85-1.609.767-2.831.754-2.96-.109-1.935-1.755-3.725-1.892-3.866-2.496-2.939-6.364-3.258-8.113-3.238-.118-.927-.332-1.489-.351-1.54l-.046-.102c-1.914-3.915-7.276-4.284-8.73-4.313v-.001h-.364c-1.455.029-6.817.395-8.732 4.314l-.045.102c-.044.114-1.082 2.831.239 6.51l4.923 12.988c-.283.337-.572.534-.864.573-.538.074-1.141-.33-1.333-.494L7.43 38.27c-1.194-1.399-1.162-2.476-1.158-2.547.04-.72.813-1.762 1.228-2.209 1.013-1.192 2.429-1.76 3.688-2.028a10.114 10.114 0 0 1-.115-2.836c-1.827.311-4.043 1.096-5.655 2.994-.187.198-1.834 1.989-1.937 3.863-.018.174-.1 1.409.751 3.02-.751.886-3.672 4.55-3.873 8.15-.22 1.596.154 4.608 3.1 5.123.184.038.698.128 1.485.128 1.904 0 5.416-.526 9.765-3.54l.228.202c.148.135 1.395 1.213 3.06 1.213.154 0 .31-.009.47-.029a3.86 3.86 0 0 0 1.661-.638c.475.705 1.316 1.402 2.604 1.445v.012c.021 0 .039-.005.06-.005.021 0 .039.005.06.005v-.012c1.288-.043 2.129-.74 2.604-1.444.605.404 1.19.579 1.658.637.16.02.318.029.473.029 1.665 0 2.91-1.078 3.045-1.2l.244-.214c4.348 3.013 7.859 3.539 9.762 3.539.787 0 1.3-.09 1.485-.128 2.946-.514 3.32-3.527 3.1-5.123-.2-3.6-3.122-7.265-3.87-8.15zM4.059 49.066l-.103-.02c-1.067-.179-.829-1.952-.82-2.02l.015-.148c.1-2.177 1.825-4.792 2.877-6.126l6.505 5.724c-5.05 3.275-8.455 2.594-8.474 2.59zm34.074-15.495c.353.372 1.138 1.43 1.184 2.215 0 .01.025 1.092-1.164 2.485l-9.383 8.243c-.007.005-.69.561-1.31.482-.294-.036-.587-.233-.871-.574l4.93-13.012c.273-.763.44-1.481.54-2.147 1.226-.025 4.24.153 6.074 2.308zm-14.93 13.892c-.003.003-.105.285-.418.319a.5.5 0 0 1-.403-.319L16.7 32.464c-.871-2.43-.368-4.186-.274-4.475 1.134-2.191 4.712-2.671 6.264-2.683v.001H22.844c.836.009 5.03.2 6.313 2.678.104.32.592 2.068-.266 4.456l-5.663 14.944-.026.078zm16.36-6.703c1.053 1.331 2.769 3.934 2.868 6.118l.015.148c.002.019.27 1.838-.819 2.02l-.086.016c-.034.008-3.437.69-8.487-2.584l6.509-5.718z"/>
            <path d="M57.537 18.89c-.383 0-.756.035-1.121.093v-5.211H26.664v6.906c.892.214 1.847.523 2.783.978v-5.117h24.151v.033h.018v15.994c0 2.316-1.884 4.2-4.199 4.2H44.33c-.06.408-.162.879-.333 1.399.3.403.631.87.97 1.4h4.451c3.86 0 6.999-3.14 6.999-7v-1.067c.365.058.738.093 1.121.093 3.749 0 6.786-2.845 6.786-6.352 0-3.506-3.037-6.349-6.786-6.349zm0 9.901c-.392 0-.765-.06-1.121-.157v-6.787c.356-.097.73-.157 1.121-.157 2.198 0 3.987 1.592 3.987 3.55 0 1.958-1.789 3.551-3.987 3.551z"/>
        </g>
    </symbol>

    <symbol id="handshake" viewBox="0 0 59 38">
        <title>Handshake icon</title>
        <g fill="currentColor" fill-rule="evenodd">
            <path d="M3.595 21.8A1.797 1.797 0 1 1 0 21.8a1.797 1.797 0 1 1 3.595 0M35.482 32.791c-.8.32-1.406.411-2.05-.347l-3.814-6.734a1.399 1.399 0 1 0-2.436 1.38l2.752 4.858.047.082h.002l1.296 2.196c.111.133.222.263.336.376.94.939 1.95 1.232 2.848 1.232 1.025 0 1.9-.37 2.356-.564.079-.033.143-.06.205-.083l-1.542-2.396M28.565 34.378c-.085.047-.81.386-1.606-.589l-.014-.027-2.331-4.058a1.399 1.399 0 1 0-2.427 1.394l2.205 3.843.059.1-.01.007.083.144.061.1c1.091 1.508 2.404 1.98 3.512 1.98a3.88 3.88 0 0 0 1.818-.441l-1.166-2.12-.184-.333M56.8 22a1.8 1.8 0 1 0 .001 3.6A1.8 1.8 0 0 0 56.8 22"/>
            <path d="M21.139 35.148c-.7-.006-1.605-.27-2.266-1.391l-6.176-10.57H9.618V6.073h8.979l2.22-2.8H9.617V0H.061v2.8h6.758v24.04H0v2.8h9.618V26h1.481l5.36 9.175c1.27 2.152 3.163 2.766 4.724 2.766a5.87 5.87 0 0 0 1.49-.194l-1.534-2.599"/>
            <path d="M51.794 4.865h6.775v-2.8h-9.574v2.8l-8.76-3.827-.003.006V1l-10.884.007c-.31.005-3.107.141-5.809 3.538L16 14.374l.378.778c.142.294 1.469 2.889 4.12 3.52.378.089.758.133 1.14.133 1.283 0 2.588-.502 3.895-1.501l5.145-5.206c.814.07 2.226.192 3.355.287l8.723 16.673-.009.016c-.426.799-.912 1.48-1.336 1.802a.983.983 0 0 1-.313.168c-.03.01-.065.033-.094.036-.13.011-.427-.114-.83-.552l-5.647-8.836A1.399 1.399 0 1 0 32.17 23.2l3.035 4.748.205.322.001-.001 2.545 3.959.024.036.104.116.041.046c.494.54 1.01.928 1.547 1.166.418.186.848.29 1.29.29.046 0 .091-.004.137-.007.061-.002.123-.003.185-.009a3.444 3.444 0 0 0 1.554-.576c1.478-.968 2.46-2.903 2.964-4.12l3.194-.01v2.544h9.635v-2.8h-6.836V4.864zm-7.282 21.51L35.82 9.76l.002-.04c-.759-.05-5.51-.465-5.558-.469l-.656-.057-5.85 5.942c-.963.717-1.835.992-2.602.813-.767-.178-1.403-.796-1.815-1.33l6.404-8.35c1.856-2.333 3.598-2.459 3.623-2.462L39.566 3.8l9.429 4.12v18.44l-4.483.014z"/>
        </g>
    </symbol>

    <symbol id="lightbulb" viewBox="0 0 43 57">
        <title>Lightbulb icon</title>
        <g fill="currentColor" fill-rule="evenodd">
            <path d="M27.047 49H14.4a1.4 1.4 0 0 0 0 2.8h12.647a1.4 1.4 0 0 0 0-2.8M24.646 54H18.4a1.4 1.4 0 0 0 0 2.8h6.246a1.4 1.4 0 0 0 0-2.8M21.828 9C12.534 9 5 16.397 5 25.524c0 4.326 1.33 7.382 3.13 9.594 3.093 3.346 6.234 4.816 6.767 10.548h13.86c.537-5.732 3.674-7.202 6.784-10.548 2.091-2.47 3.127-5.268 3.127-9.594C38.668 16.397 31.123 9 21.828 9zm11.616 24.26c-.608.651-1.243 1.248-1.857 1.826-2.086 1.962-4.23 3.98-5.19 7.78H23.32v-11.31l4.364-4.38a1.4 1.4 0 1 0-1.983-1.977l-3.866 3.881-3.866-3.88a1.399 1.399 0 1 0-1.984 1.975l4.536 4.553v11.138h-3.261c-.957-3.79-3.091-5.805-5.17-7.765-.609-.575-1.239-1.17-1.843-1.817C8.6 31.228 7.8 28.688 7.8 25.524c0-7.567 6.293-13.724 14.029-13.724 7.741 0 14.04 6.157 14.04 13.724 0 3.436-.702 5.683-2.424 7.737zM21.4 6.39a1.4 1.4 0 0 0 1.4-1.4V1.4a1.4 1.4 0 1 0-2.8 0v3.59a1.4 1.4 0 0 0 1.4 1.4M42.293 8.408a1.4 1.4 0 0 0-1.98.004l-2.906 2.917a1.4 1.4 0 0 0 1.985 1.976l2.905-2.917a1.4 1.4 0 0 0-.004-1.98M5.293 13.31a1.4 1.4 0 0 0 .002-1.98L2.392 8.411a1.4 1.4 0 0 0-1.984 1.976l2.905 2.917a1.398 1.398 0 0 0 1.98.004"/>
        </g>
    </symbol>

    <symbol id="lightning" viewBox="0 0 16 25">
        <title>Lightning bolt icon</title>
        <path d="M6.63 10.086a.679.679 0 0 0 .958-.078l7.536-8.888A.68.68 0 0 0 14.605 0H5.491a.679.679 0 0 0-.637.441L.044 13.29a.68.68 0 0 0 .636.918h3.077L.143 24.086a.68.68 0 0 0 1.151.68L14.871 9.17a.68.68 0 0 0-.513-1.127h-3.32L9.88 9.402h2.984L2.684 21.098l2.684-7.337a.68.68 0 0 0-.638-.914H1.66L5.964 1.36h7.174L6.553 9.128a.68.68 0 0 0 .077.958"
              fill="currentColor" fill-rule="evenodd"/>
    </symbol>

    <symbol id="location-old" viewBox="0 0 53 66">
        <title>Location marker icon</title>
        <g stroke="currentColor" fill="currentColor" fill-rule="evenodd">
            <path d="M31.592 60.535c2.688-2.924 5.682-6.503 8.432-10.145 7.469-9.892 12.058-18.622 12.058-24.798 0-13.85-11.54-25.076-25.776-25.076S.53 11.743.53 25.592c0 6.17 4.503 14.92 11.818 24.808 2.703 3.654 5.644 7.239 8.273 10.15 3.024 3.346 4.389 4.655 5.493 4.629 1.047-.025 2.483-1.386 5.478-4.644zm-5.518 1.151c-.083-.076-.17-.16-.264-.249-.734-.704-1.707-1.72-2.8-2.93-2.562-2.836-5.44-6.343-8.08-9.914-6.936-9.376-11.22-17.699-11.22-23 0-12.141 10.117-21.984 22.596-21.984 12.48 0 22.596 9.843 22.596 21.983 0 5.292-4.364 13.593-11.441 22.967-2.689 3.56-5.618 7.062-8.24 9.913-1.112 1.21-2.104 2.23-2.855 2.942-.103.098-.2.189-.292.272z"
                  stroke-width=".5"/>
            <path d="M33.334 15.714a11.222 11.222 0 0 0-9.426-1.762c-5.866 1.53-9.347 7.395-7.775 13.102 1.572 5.707 7.6 9.093 13.467 7.564 5.865-1.529 9.347-7.395 7.775-13.101-.228-.826-1.1-1.315-1.948-1.094-.848.22-1.351 1.069-1.124 1.894 1.117 4.057-1.357 8.226-5.526 9.313-4.17 1.087-8.455-1.32-9.573-5.377-1.117-4.056 1.358-8.225 5.527-9.312a7.972 7.972 0 0 1 6.701 1.253c.704.51 1.7.37 2.226-.315a1.52 1.52 0 0 0-.324-2.165z"
                  stroke-width=".6"/>
        </g>
    </symbol>

    <symbol id="location" viewBox="0 0 68 68">
        <title>Location marker icon</title>
        <g id="Kurs" stroke="none" stroke-width="1" fill="none" fill-rule="evenodd">
            <g id="sted" transform="translate(17.000000, 14.000000)" fill="#222222" stroke="#222222">
                <g id="sted-copy">
                    <path d="M20.266272,38.8337008 C21.990945,36.9576848 23.9115441,34.6622594 25.6756198,32.3258931 C30.4672233,25.9798267 33.4109859,20.3792837 33.4109859,16.417785 C33.4109859,7.53317651 26.0077935,0.330778302 16.875493,0.330778302 C7.7431924,0.330778302 0.34,7.53317651 0.34,16.417785 C0.34,20.3755455 3.22887115,25.9884756 7.92136042,32.3321182 C9.65517143,34.676008 11.5422074,36.9759526 13.2288126,38.8430469 C15.1681762,40.9899482 16.0440094,41.8296409 16.7523662,41.8127284 C17.4239158,41.7966947 18.3450188,40.9235474 20.266272,38.8337008 Z M16.7268836,39.572402 C16.6737106,39.5231132 16.6171766,39.4697839 16.5575687,39.4126357 C16.0865216,38.9610259 15.4624136,38.3092024 14.7611564,37.5329013 C13.1176423,35.7135094 11.2718455,33.4638276 9.57716349,31.1728352 C5.12810546,25.1582804 2.38,19.8188509 2.38,16.417785 C2.38,8.62927942 8.86985328,2.31544811 16.875493,2.31544811 C24.8811326,2.31544811 31.3709859,8.62927942 31.3709859,16.417785 C31.3709859,19.8122279 28.5717508,25.1378056 24.0315253,31.1509434 C22.30683,33.4351539 20.4274948,35.6812622 18.7457198,37.5106159 C18.0324332,38.2864947 17.395796,38.9412004 16.9139717,39.3979392 C16.8478343,39.4606332 16.7853505,39.5188817 16.7268836,39.572402 Z" id="Oval-2" stroke-width="0.5"></path>
                    <path d="M21.3839746,10.0808009 C19.6645748,8.83292338 17.4498821,8.39979218 15.3371584,8.95054061 C11.5741937,9.93147666 9.34108321,13.6944308 10.3493666,17.3553339 C11.35765,21.0162371 15.2255107,23.1887798 18.9884754,22.2078437 C22.7514401,21.2269076 24.9845506,17.4639535 23.9762672,13.8030503 C23.8304666,13.2736733 23.2711628,12.9595174 22.7270274,13.1013636 C22.182892,13.2432097 21.8599779,13.7873436 22.0057786,14.3167206 C22.7224606,16.9188697 21.1351784,19.5935561 18.4604846,20.2907998 C15.7857907,20.9880436 13.0365373,19.4438127 12.3198553,16.8416636 C11.6031732,14.2395145 13.1904554,11.5648282 15.8651492,10.8675844 C17.3681405,10.4757821 18.9401158,10.783216 20.1641679,11.6715883 C20.6156983,11.9992926 21.2547991,11.9088396 21.5916394,11.4695558 C21.9284798,11.030272 21.8355051,10.4085053 21.3839746,10.0808009 Z" id="Oval-3" stroke-width="0.6"></path>
                </g>
            </g>
        </g>
    </symbol>

    <symbol id="displays" viewBox="0 0 77 61">
        <title>Computer and phone display icon</title>
        <g fill-rule="nonzero" fill="currentColor">
            <path d="M31.102 55.527a1.998 1.998 0 0 1-.102-.632V47H5.004A4.998 4.998 0 0 1 0 41.993V5.007A4.999 4.999 0 0 1 4.996 0h54.008A4.995 4.995 0 0 1 64 4.99v10.487a2 2 0 1 1-4 0V4.99A.995.995 0 0 0 59.004 4H4.996A.999.999 0 0 0 4 5.007v36.986A.998.998 0 0 0 5.004 43h41.463a2 2 0 1 1 0 4H35v7.895c0 .22-.036.433-.102.632h10.268a2 2 0 1 1 0 4H18.163a2 2 0 1 1 0-4h12.939zm4.628-46.18a2 2 0 1 1 2.835 2.822L20.418 30.405a2 2 0 0 1-2.836-2.822L35.73 9.347zm-3.227 14.784a2 2 0 0 1 2.874 2.782l-5.866 6.06a2 2 0 0 1-2.874-2.782l5.866-6.06z"/>
            <path d="M55 25.995c0-.55.445-.995 1-.995h15.412c.55 0 1 .45 1 .995v29.502c0 .55-.445.995-1 .995H56c-.55 0-1-.45-1-.995V25.995zm-4 0v29.502a5.002 5.002 0 0 0 5 4.995h15.412c2.764 0 5-2.235 5-4.995V25.995a5.002 5.002 0 0 0-5-4.995H56c-2.764 0-5 2.235-5 4.995z"/>
        </g>
    </symbol>

    <symbol id="pin" viewBox="0 0 35 35">
        <title>Map pin</title>
        <path d="M33.004 12.833L22.17 2s-2.8 3.38-2.178 7.13l-5.147 5.15 5.674 5.67 5.007-5.007c3.888.86 7.477-2.11 7.477-2.11zm-29.39 3.214L18.852 31.28s6.96-6.04-1.068-14.066C9.758 9.19 3.615 16.047 3.615 16.047zm7.67 7.668L2 33l9.285-9.285z" stroke="currentColor" stroke-width="2.5" fill="none" fill-rule="evenodd" stroke-linecap="round" stroke-linejoin="round"/>
    </symbol>

    <symbol id="arrow-right" viewBox="0 0 24 22">
        <title>Arrow</title>
        <g fill-rule="nonzero" fill="currentColor">
            <path d="M15.223 21.13c-.203 0-.41-.062-.586-.19-.447-.327-.547-.952-.22-1.398l6.53-8.977-6.53-8.978c-.327-.446-.227-1.07.22-1.396.445-.324 1.072-.225 1.397.22l6.957 9.567c.256.35.256.825 0 1.176l-6.956 9.565c-.196.27-.5.412-.81.412"/>
            <path d="M22.182 11.565H1c-.552 0-1-.447-1-1 0-.553.448-1 1-1h21.182c.553 0 1 .447 1 1 0 .553-.447 1-1 1"/>
        </g>
    </symbol>

    <symbol id="chevron" viewBox="0 0 18 18">
        <title>Chevron</title>
        <g transform="translate(1 1)" fill="none" fill-rule="evenodd">
            <path d="M7.025 7.73L5.56 6.27c-.356-.357-.935-.357-1.292 0s-.357.936 0 1.293l.072.073 2.862 2.854.074.074c.14.14.312.222.492.252.29.057.6-.025.825-.25l2.934-2.925c.18-.178.268-.412.268-.646 0-.233-.09-.467-.268-.645-.358-.358-.936-.358-1.294 0l-1.38 1.378-.956.85" fill="currentColor"/>
            <circle stroke="currentColor" cx="8" cy="8" r="8"/>
        </g>
    </symbol>

    <symbol id="chevron-circle-left" viewBox="0 0 26 27">
        <svg width="26" height="27" >
            <title>
                Chevron circle left
            </title>
            <g fill="none" fill-rule="evenodd" transform="translate(0 1)">
                <path fill="currentColor" d="M17.378 10.89h-5.98l2.195-2.206c.535-.538.535-1.41 0-1.95-.536-.538-1.404-.538-1.94 0l-.108.11-.004.002-4.276 4.31s0 .002-.002.002l-.11.11c-.206.21-.33.47-.376.742-.085.435.038.906.373 1.243l4.388 4.42c.268.27.62.405.97.405s.702-.134.97-.404c.536-.54.536-1.41 0-1.95l-2.068-2.077h5.968c.758 0 1.372-.618 1.372-1.38 0-.76-.615-1.378-1.372-1.378"/>
                <ellipse cx="12.75" cy="12.359" stroke="currentColor" stroke-width="1.5" rx="12" ry="12.056"/>
            </g>
        </svg>
    </symbol>

    <symbol id="flag-norwegian" viewBox="0 0 512 512">
        <title>Norwegian flag</title>
        <g fill-rule="nonzero" fill="none">
            <path fill="#EF2B2D" d="M0 0h512v512H0z"/>
            <path fill="#FFF" d="M116 0h128v512H116z"/>
            <path fill="#FFF" d="M0 192h512v128H0z"/>
            <path fill="#002868" d="M148 0h64v512h-64z"/>
            <path fill="#002868" d="M0 224h512v64H0z"/>
        </g>
    </symbol>

    <symbol id="flag-swedish" viewBox="0 0 512 512">
        <title>Swedish flag</title>
        <g fill-rule="nonzero" fill="none">
            <path fill="#006AA7" d="M0 0h512v512H0z"/>
            <path fill="#FECC00" d="M133 0h104v512H133z"/>
            <path fill="#FECC00" d="M0 205h512v102H0z"/>
        </g>
    </symbol>

    <symbol id="flag-british" viewBox="0 0 512 512">
        <title>British flag</title>
        <path fill="#00247d" d="M512 70.54V0H341.33v155.78L512 70.54M170.67 0H0v70.54l170.67 85.24V0M341.33 356.22V512H170.67V356.22L0 441.46V512h512v-70.54l-170.67-85.24"/>
        <path fill="#fff" d="M0 166.53v4.14h8.3L0 166.53M0 341.33v42.52l84.93-42.52H0M512 345.79v-4.46h-8.94l8.94 4.46M512 170.67v-42.89l-85.94 42.89H512M341.33 170.67h7.12L512 88.73V70.54l-170.67 85.24v14.89M341.33 341.33v14.89L512 441.46v-57.67l-84.8-42.46h-85.87M170.67 341.33h-10.42L0 421.82v19.64l170.67-85.24v-14.89M170.67 170.67v-14.89L0 70.54v57.22l85.98 42.91h84.69"/>
        <path fill="#cf142b" d="M84.93 341.33L0 383.85v37.97l160.25-80.49H84.93M427.2 341.33l84.8 42.46v-38l-8.94-4.46H427.2M426.06 170.67L512 127.78V88.73l-163.55 81.94h77.61M85.98 170.67L0 127.76v38.77l8.3 4.14h77.68"/>
        <path fill="#fff" d="M307.2 512h34.13V341.33H512V307.2H307.2V512M512 204.8v-34.13H341.33V0H307.2v204.8H512M160.25 341.33h10.42V512h34.13V307.2H0v34.13h160.25M204.8 0h-34.13V170.67H0v34.13h204.8V0"/>
        <path fill="#cf142b" d="M204.8 512h102.4V307.2H512V204.8H307.2V0H204.8v204.8H0v102.4h204.8V512"/>
    </symbol>


    <symbol id="check" width="13" height="11" viewBox="0 0 13 11">
        <title>
            Check
        </title>
        <path fill="currentColor" fill-rule="evenodd" d="M0 5.74l1.765-2.173L5.153 6.32 10.04 0l2.214 1.714-6.64 8.588"/>
    </symbol>

    <symbol id="x" viewBox="0 0 11 11">
        <svg width="11" height="11" >
            <title>
                X
            </title>
            <g fill="none" fill-rule="evenodd" stroke="currentColor" stroke-width="3" stroke-linecap="round">
                <path d="M8.978 2.086l-2.41 2.5m-2 2l-2.25 2.16M2.086 2.086l6.66 6.66"/>
            </g>
        </svg>
    </symbol>

    <symbol id="x-slimmer" viewBox="0 0 25 24">
        <title>
            x-slimmer
        </title>
        <g fill="none" fill-rule="evenodd" stroke="currentColor" stroke-width="3" stroke-linecap="round">
            <path d="M22.934 2.258l-7.232 7.5m-6 6l-6.75 6.483M2.258 2.258L22.24 22.24"/>
        </g>
    </symbol>

    <symbol id="magnifying-glass" viewBox="0 0 22 22">
        <title>
            Magnifying glass
        </title>
        <svg width="22" height="22">
            <path fill="currentColor" fill-rule="evenodd" d="M21.22 18.81l-4.46-4.435c1.04-1.482 1.654-3.28 1.654-5.22C18.414 4.108 14.284 0 9.206 0 4.13 0 0 4.107 0 9.156c0 5.05 4.13 9.156 9.206 9.156 2.04 0 3.917-.67 5.444-1.79l4.436 4.412c.294.293.68.44 1.067.44.387 0 .773-.147 1.068-.44.59-.586.59-1.536 0-2.123zM3.02 9.157c0-3.394 2.775-6.154 6.186-6.154 3.413 0 6.19 2.76 6.19 6.154 0 3.393-2.777 6.153-6.19 6.153-3.41 0-6.187-2.76-6.187-6.154z"/>
        </svg>
    </symbol>


    <symbol id="certificate-card-old" viewBox="0 0 51 41">
        <title>
            Certificate card
        </title>
        <g fill="currentColor" fill-rule="evenodd">
            <path d="M15.744 14C12.57 14 10 16.573 10 19.746c0 3.174 2.57 5.746 5.744 5.746 3.173 0 5.74-2.572 5.74-5.746 0-3.173-2.567-5.746-5.74-5.746zm0 8.692c-1.624 0-2.945-1.32-2.945-2.946 0-1.624 1.32-2.946 2.944-2.946 1.622 0 2.94 1.322 2.94 2.946 0 1.625-1.318 2.946-2.94 2.946zM42.585 20.8H28.4c-.774 0-1.4-.626-1.4-1.4 0-.773.626-1.4 1.4-1.4h14.185c.772 0 1.4.627 1.4 1.4 0 .774-.628 1.4-1.4 1.4M42.585 25.8H28.4c-.774 0-1.4-.627-1.4-1.4 0-.774.626-1.4 1.4-1.4h14.185c.772 0 1.4.626 1.4 1.4 0 .773-.628 1.4-1.4 1.4M42.585 32.8H28.4c-.774 0-1.4-.627-1.4-1.4 0-.774.626-1.4 1.4-1.4h14.185c.772 0 1.4.626 1.4 1.4 0 .773-.628 1.4-1.4 1.4M22 13.2h9.265V0H22v13.2zm2.8-10.4h3.666v7.6H24.8V2.8z"/>
            <path d="M46.562 7h-13.38v2.8h13.38c.65 0 1.2.55 1.2 1.2v25.89c0 .65-.55 1.2-1.2 1.2h-22.88l.002-.06v-4.35c0-3.08-2.52-5.6-5.6-5.6H12.1c-3.08 0-5.6 2.52-5.6 5.6v4.35l.003.06H4c-.65 0-1.2-.55-1.2-1.2V11c0-.65.55-1.2 1.2-1.2h14.31V7H4c-2.2 0-4 1.8-4 4v25.89c0 2.2 1.8 4 4 4H46.56c2.2 0 4-1.8 4-4V11c0-2.2-1.8-4-4-4zM20.884 38.03c0 .02-.005.04-.006.06H9.306c0-.02-.006-.04-.006-.06v-4.35c0-1.544 1.255-2.8 2.8-2.8h5.985c1.544 0 2.8 1.256 2.8 2.8v4.35z"/>
        </g>
    </symbol>

    <symbol id="certificate-card" viewBox="0 0 64 64">
        <title>
            Certificate card
        </title>
        <g id="Kurs" stroke="none" stroke-width="1" fill="none" fill-rule="evenodd">
            <g id="sertifisering" transform="translate(9.000000, 13.000000)" fill="#222222">
                <g id="sertifisering-copy">
                    <path d="M15.7435818,14 C12.5706548,14 10,16.5728 10,19.7464 C10,22.92 12.5706548,25.492 15.7435818,25.492 C18.9165089,25.492 21.4831645,22.92 21.4831645,19.7464 C21.4831645,16.5728 18.9165089,14 15.7435818,14 L15.7435818,14 Z M15.7435818,22.692 C14.1199262,22.692 12.7994063,21.3712 12.7994063,19.7464 C12.7994063,18.1216 14.1199262,16.8 15.7435818,16.8 C17.3656378,16.8 18.6837583,18.1216 18.6837583,19.7464 C18.6837583,21.3712 17.3656378,22.692 15.7435818,22.692 L15.7435818,22.692 Z" id="Fill-28"></path>
                    <path d="M42.5846947,20.8 L28.3997031,20.8 C27.6262672,20.8 27,20.1736 27,19.4 C27,18.6272 27.6262672,18 28.3997031,18 L42.5846947,18 C43.3573308,18 43.9843978,18.6272 43.9843978,19.4 C43.9843978,20.1736 43.3573308,20.8 42.5846947,20.8" id="Fill-29"></path>
                    <path d="M42.5846947,25.8 L28.3997031,25.8 C27.6262672,25.8 27,25.1728 27,24.4 C27,23.6264 27.6262672,23 28.3997031,23 L42.5846947,23 C43.3573308,23 43.9843978,23.6264 43.9843978,24.4 C43.9843978,25.1728 43.3573308,25.8 42.5846947,25.8" id="Fill-30"></path>
                    <path d="M42.5846947,32.8 L28.3997031,32.8 C27.6262672,32.8 27,32.1728 27,31.4 C27,30.6264 27.6262672,30 28.3997031,30 L42.5846947,30 C43.3573308,30 43.9843978,30.6264 43.9843978,31.4 C43.9843978,32.1728 43.3573308,32.8 42.5846947,32.8" id="Fill-31"></path>
                    <path d="M22,13.1992 L31.2652349,13.1992 L31.2652349,0 L22,0 L22,13.1992 Z M24.7994063,2.8 L28.4658287,2.8 L28.4658287,10.3992 L24.7994063,10.3992 L24.7994063,2.8 Z" id="Fill-32"></path>
                    <path d="M46.5621247,7 L33.1833622,7 L33.1833622,9.8 L46.5621247,9.8 C47.2115869,9.8 47.7618702,10.3496 47.7618702,11 L47.7618702,36.8888 C47.7618702,37.54 47.2115869,38.0888 46.5621247,38.0888 L23.6805776,38.0888 C23.6805776,38.0688 23.6837769,38.0488 23.6837769,38.0288 L23.6837769,33.6792 C23.6837769,30.6 21.1643113,28.0792 18.0849644,28.0792 L12.0990339,28.0792 C9.01968702,28.0792 6.50022137,30.6 6.50022137,33.6792 L6.50022137,38.0288 C6.50022137,38.0488 6.5034207,38.0688 6.5034207,38.0888 L3.99915182,38.0888 C3.34888974,38.0888 2.79940628,37.54 2.79940628,36.8888 L2.79940628,11 C2.79940628,10.3496 3.34888974,9.8 3.99915182,9.8 L18.3097167,9.8 L18.3097167,7 L3.99915182,7 C1.79961832,7 0,8.8 0,11 L0,36.8888 C0,39.0888 1.79961832,40.8888 3.99915182,40.8888 L46.5621247,40.8888 C48.7616582,40.8888 50.5612765,39.0888 50.5612765,36.8888 L50.5612765,11 C50.5612765,8.8 48.7616582,7 46.5621247,7 L46.5621247,7 Z M20.8843707,38.0288 C20.8843707,38.0488 20.8787718,38.0688 20.877972,38.0888 L9.30602629,38.0888 C9.30522646,38.0688 9.29962765,38.0488 9.29962765,38.0288 L9.29962765,33.6792 C9.29962765,32.136 10.5553613,30.8792 12.0990339,30.8792 L18.0849644,30.8792 C19.628637,30.8792 20.8843707,32.136 20.8843707,33.6792 L20.8843707,38.0288 L20.8843707,38.0288 Z" id="Fill-58"></path>
                </g>
            </g>
        </g>
    </symbol>

    <symbol id="presentation-old" viewBox="0 0 54 48">
        <title>
            Person presenting
        </title>
        <g fill="currentColor" fill-rule="evenodd">
            <path d="M31.01 38.675V35h-2.798v3.71L20.7 44.957c-.595.495-.677 1.377-.183 1.972.277.332.676.504 1.078.504.316 0 .632-.106.894-.324l5.722-4.758v3.77c0 .773.626 1.4 1.4 1.4.772 0 1.398-.627 1.398-1.4v-3.808l5.775 4.796c.262.217.58.324.893.324.403 0 .8-.173 1.08-.507.492-.594.41-1.477-.184-1.97l-7.564-6.282"/>
            <path d="M16.89 1c.603.837 1.063 1.78 1.347 2.8h30.075v23.43c0 1.544-1.257 2.8-2.8 2.8H19.216v-9.467c0-1.19-.374-2.297-1.008-3.212-.39-.565-.883-1.057-1.45-1.448-.914-.634-2.02-1.008-3.21-1.008H5.85c-1.19 0-2.296.374-3.21 1.007-.565.394-1.054.886-1.446 1.454-.628.914-1 2.02-1 3.21v10.15c0 1.185.37 2.288.993 3.2.395.576.89 1.076 1.464 1.472.457.314.962.564 1.5.735V47.94h2.8V33.584h-1.1c-.473 0-.914-.126-1.307-.33-.923-.48-1.56-1.43-1.56-2.54v-10.15c0-1.583 1.286-2.87 2.867-2.87h7.697c1.582 0 2.87 1.287 2.87 2.87v10.15c0 .84-.37 1.59-.948 2.116-.192.174-.407.32-.64.437-.39.196-.82.317-1.283.317h-1.103v14.354h2.8V36.122c.54-.172 1.045-.42 1.502-.736.575-.396 1.074-.895 1.47-1.47.233-.337.428-.702.584-1.086h26.712c3.08 0 5.6-2.52 5.6-5.6V3.8h1.204c.774 0 1.4-.627 1.4-1.4 0-.774-.626-1.4-1.4-1.4H16.89z"/>
            <path d="M9.585 12.784c3.53 0 6.39-2.862 6.39-6.392 0-3.53-2.86-6.392-6.39-6.392s-6.39 2.862-6.39 6.392c0 3.53 2.86 6.392 6.39 6.392zm0-9.984c1.98 0 3.592 1.61 3.592 3.592 0 1.98-1.61 3.592-3.592 3.592-1.98 0-3.592-1.61-3.592-3.592 0-1.98 1.613-3.592 3.592-3.592z"/>
        </g>
    </symbol>

    <symbol id="presentation" viewBox="0 0 68 68">
        <title>
            Person presenting
        </title>
        <g id="Kurs" stroke="none" stroke-width="1" fill="none" fill-rule="evenodd">
            <g id="kurs" transform="translate(7.000000, 9.000000)" fill="#222222">
                <g id="kategorier-copy">
                    <path d="M31.0102543,38.6752 L31.0102543,35 L28.2116478,35 L28.2116478,38.7096 L20.6988412,44.9568 C20.1045672,45.452 20.0229845,46.3344 20.5172797,46.9288 C20.794021,47.2616 21.1931364,47.4336 21.5946512,47.4336 C21.9105842,47.4336 22.227317,47.328 22.4888615,47.1104 L28.2116478,42.352 L28.2116478,46.1224 C28.2116478,46.8952 28.837915,47.5224 29.6113509,47.5224 C30.3839871,47.5224 31.0102543,46.8952 31.0102543,46.1224 L31.0102543,42.3144 L36.7850295,47.1104 C37.046574,47.3272 37.3641067,47.4336 37.67844,47.4336 C38.0807547,47.4336 38.4790702,47.2608 38.7566113,46.9272 C39.2501067,46.3328 39.168524,45.4504 38.57425,44.956 L31.0102543,38.6752" id="Fill-47"></path>
                    <path d="M16.8895564,1 C17.4934283,1.8368 17.9533308,2.7808 18.2372706,3.8 L48.3116921,3.8 L48.3116921,27.2296 C48.3116921,28.7736 47.0551586,30.0296 45.5122858,30.0296 L19.2162629,30.0296 L19.2162629,20.5632 C19.2162629,19.3728 18.8419423,18.2656 18.2084767,17.3512 C17.8165598,16.7848 17.3246641,16.2928 16.7591841,15.9016 C15.8441781,15.268 14.7372129,14.8936 13.5470653,14.8936 L5.85029771,14.8936 C4.66015013,14.8936 3.55398473,15.268 2.63977863,15.9008 C2.07509839,16.2936 1.58560221,16.7864 1.19448516,17.3536 C0.56581849,18.268 0.193897371,19.3736 0.193897371,20.5632 L0.193897371,30.7144 C0.193897371,31.8992 0.562619169,33.0016 1.18728668,33.9136 C1.58160305,34.4896 2.07829771,34.9896 2.65097625,35.3856 C3.10687956,35.7 3.61157252,35.9496 4.15065818,36.1208 L4.15065818,47.9376 L6.95006446,47.9376 L6.95006446,33.584 L5.85029771,33.584 C5.37679813,33.584 4.9360916,33.4576 4.54257506,33.2536 C3.62037065,32.7752 2.98210602,31.8232 2.98210602,30.7144 L2.98210602,20.5632 C2.98210602,18.9808 4.26903308,17.6936 5.85029771,17.6936 L13.5470653,17.6936 C15.1291298,17.6936 16.4168567,18.9808 16.4168567,20.5632 L16.4168567,30.7144 C16.4168567,31.5552 16.047335,32.3048 15.4690577,32.8296 C15.2778982,33.004 15.0627439,33.1496 14.8291934,33.2672 C14.4412757,33.4632 14.0101671,33.584 13.5470653,33.584 L12.4440992,33.584 L12.4440992,47.9376 L15.2435055,47.9376 L15.2435055,36.1216 C15.783391,35.9504 16.2888838,35.7008 16.7463868,35.3856 C17.3214648,34.9904 17.8197591,34.4912 18.2156751,33.9168 C18.4492256,33.5792 18.6443842,33.2144 18.8003511,32.8296 L45.5122858,32.8296 C48.5908329,32.8296 51.1110984,30.3096 51.1110984,27.2296 L51.1110984,3.8 L52.3164427,3.8 C53.0898787,3.8 53.7161459,3.1728 53.7161459,2.4 C53.7161459,1.6264 53.0898787,1 52.3164427,1 L16.8895564,1 Z" id="Fill-48"></path>
                    <path d="M9.58454198,12.784 C13.1149932,12.784 15.9759864,9.9224 15.9759864,6.392 C15.9759864,2.8616 13.1149932,0 9.58454198,0 C6.05569042,0 3.19389737,2.8616 3.19389737,6.392 C3.19389737,9.9224 6.05569042,12.784 9.58454198,12.784 L9.58454198,12.784 Z M9.58454198,2.8 C11.5657218,2.8 13.1765802,4.4112 13.1765802,6.392 C13.1765802,8.3728 11.5657218,9.984 9.58454198,9.984 C7.60576166,9.984 5.99330365,8.3728 5.99330365,6.392 C5.99330365,4.4112 7.60576166,2.8 9.58454198,2.8 L9.58454198,2.8 Z" id="Fill-49"></path>
                </g>
            </g>
        </g>
        
    </symbol>

    <symbol id="calendar-old" viewBox="0 0 45 46">
        <title>
            Calendar
        </title>
        <g fill="currentColor" fill-rule="evenodd">
            <path d="M40.732 5.08h-4.257v2.8h4.257c.65 0 1.2.55 1.2 1.2v7.374H3.19V9.08c0-.65.55-1.2 1.2-1.2h5.105v3.582c0 .773.627 1.4 1.4 1.4.773 0 1.4-.627 1.4-1.4V7.88h.008v-2.8h-.008V2.15c0-.773-.627-1.4-1.4-1.4-.773 0-1.4.627-1.4 1.4v2.93H4.39c-2.2 0-4 1.8-4 4v32.56c0 2.2 1.8 4 4 4h36.342c2.2 0 4-1.8 4-4V9.08c0-2.2-1.8-4-4-4zm0 37.76H4.39c-.65 0-1.2-.55-1.2-1.2V19.255h38.742V41.64c0 .65-.55 1.2-1.2 1.2z"/>
            <path d="M30.49 11.462c0 .773.627 1.4 1.4 1.4.773 0 1.4-.627 1.4-1.4V2.15c0-.773-.627-1.4-1.4-1.4-.773 0-1.4.627-1.4 1.4v2.93H26v2.8h4.493v3.582M19.993 11.462c0 .773.626 1.4 1.4 1.4.773 0 1.4-.627 1.4-1.4V7.88h.005v-2.8h-.005V2.15c0-.773-.627-1.4-1.4-1.4-.774 0-1.4.627-1.4 1.4v2.93h-4.49v2.8h4.49v3.582M8.262 29.477h3.2v3.2h-3.2M14.64 29.477h3.2v3.2h-3.2M21.02 29.477h3.2v3.2h-3.2M27.398 29.477h3.2v3.2h-3.2M33.778 29.477h3.2v3.2h-3.2M14.64 23.09h3.2v3.2h-3.2M21.02 23.09h3.2v3.2h-3.2M27.398 23.09h3.2v3.2h-3.2M33.778 23.09h3.2v3.2h-3.2M8.262 35.863h3.2v3.2h-3.2M14.64 35.863h3.2v3.2h-3.2M21.02 35.863h3.2v3.2h-3.2M27.398 35.863h3.2v3.2h-3.2"/>
        </g>
    </symbol>
    
    <symbol id="calendar" viewBox="0 0 68 68">
        <title>
            Calendar
        </title>
        <g id="Kurs" stroke="none" stroke-width="1" fill="none" fill-rule="evenodd">
            <g id="kalender" transform="translate(12.000000, 11.000000)" fill="#222222">
                <g id="calendar-copy">
                    <path d="M40.7320266,5.08009045 L36.4745296,5.08009045 L36.4745296,7.88009045 L40.7320266,7.88009045 C41.3830885,7.88009045 41.9317722,8.43049045 41.9317722,9.08009045 L41.9317722,16.4536904 L3.19038878,16.4536904 L3.19038878,9.08009045 C3.19038878,8.43049045 3.73907241,7.88009045 4.39013433,7.88009045 L9.49545155,7.88009045 L9.49545155,11.4616904 C9.49545155,12.2352904 10.1217187,12.8616904 10.8951547,12.8616904 C11.6677908,12.8616904 12.2948578,12.2352904 12.2948578,11.4616904 L12.2948578,7.88009045 L12.3028561,7.88009045 L12.3028561,5.08009045 L12.2948578,5.08009045 L12.2948578,2.14889045 C12.2948578,1.37689045 11.6677908,0.748890447 10.8951547,0.748890447 C10.1217187,0.748890447 9.49545155,1.37689045 9.49545155,2.14889045 L9.49545155,5.08009045 L4.39013433,5.08009045 C2.19060083,5.08009045 0.390982506,6.88009045 0.390982506,9.08009045 L0.390982506,41.6408904 C0.390982506,43.8408904 2.19060083,45.6408904 4.39013433,45.6408904 L40.7320266,45.6408904 C42.9315601,45.6408904 44.7311784,43.8408904 44.7311784,41.6408904 L44.7311784,9.08009045 C44.7311784,6.88009045 42.9315601,5.08009045 40.7320266,5.08009045 L40.7320266,5.08009045 Z M40.7320266,42.8408904 L4.39013433,42.8408904 C3.73907241,42.8408904 3.19038878,42.2912904 3.19038878,41.6408904 L3.19038878,19.2536904 L41.9317722,19.2536904 L41.9317722,41.6408904 C41.9317722,42.2912904 41.3830885,42.8408904 40.7320266,42.8408904 L40.7320266,42.8408904 Z" id="Fill-25"></path>
                    <path d="M30.4909986,11.4616904 C30.4909986,12.2352904 31.1172658,12.8616904 31.8907018,12.8616904 C32.6633379,12.8616904 33.2904049,12.2352904 33.2904049,11.4616904 L33.2904049,2.14889045 C33.2904049,1.37689045 32.6633379,0.748890447 31.8907018,0.748890447 C31.1172658,0.748890447 30.4909986,1.37689045 30.4909986,2.14889045 L30.4909986,5.08009045 L25.9975516,5.08009045 L25.9975516,7.88009045 L30.4909986,7.88009045 L30.4909986,11.4616904" id="Fill-26"></path>
                    <path d="M19.9932251,11.4616904 C19.9932251,12.2352904 20.6194923,12.8616904 21.3929282,12.8616904 C22.1655644,12.8616904 22.7926314,12.2352904 22.7926314,11.4616904 L22.7926314,7.88009045 L22.7982302,7.88009045 L22.7982302,5.08009045 L22.7926314,5.08009045 L22.7926314,2.14889045 C22.7926314,1.37689045 22.1655644,0.748890447 21.3929282,0.748890447 C20.6194923,0.748890447 19.9932251,1.37689045 19.9932251,2.14889045 L19.9932251,5.08009045 L15.5021776,5.08009045 L15.5021776,7.88009045 L19.9932251,7.88009045 L19.9932251,11.4616904" id="Fill-27"></path>
                    <polygon id="Fill-28" points="8.26211313 29.4768904 11.4614346 29.4768904 11.4614346 32.6768904 8.26211313 32.6768904"></polygon>
                    <polygon id="Fill-29" points="14.6407603 29.4768904 17.8400817 29.4768904 17.8400817 32.6768904 14.6407603 32.6768904"></polygon>
                    <polygon id="Fill-30" points="21.0194074 29.4768904 24.2187289 29.4768904 24.2187289 32.6768904 21.0194074 32.6768904"></polygon>
                    <polygon id="Fill-31" points="27.3980546 29.4768904 30.5981759 29.4768904 30.5981759 32.6768904 27.3980546 32.6768904"></polygon>
                    <polygon id="Fill-32" points="33.7775016 29.4768904 36.976823 29.4768904 36.976823 32.6768904 33.7775016 32.6768904"></polygon>
                    <polygon id="Fill-33" points="14.6407603 23.0896904 17.8400817 23.0896904 17.8400817 26.2896904 14.6407603 26.2896904"></polygon>
                    <polygon id="Fill-34" points="21.0194074 23.0896904 24.2187289 23.0896904 24.2187289 26.2896904 21.0194074 26.2896904"></polygon>
                    <polygon id="Fill-35" points="27.3980546 23.0896904 30.5981759 23.0896904 30.5981759 26.2896904 27.3980546 26.2896904"></polygon>
                    <polygon id="Fill-36" points="33.7775016 23.0896904 36.976823 23.0896904 36.976823 26.2896904 33.7775016 26.2896904"></polygon>
                    <polygon id="Fill-37" points="8.26211313 35.8632904 11.4614346 35.8632904 11.4614346 39.0632904 8.26211313 39.0632904"></polygon>
                    <polygon id="Fill-38" points="14.6407603 35.8632904 17.8400817 35.8632904 17.8400817 39.0632904 14.6407603 39.0632904"></polygon>
                    <polygon id="Fill-39" points="21.0194074 35.8632904 24.2187289 35.8632904 24.2187289 39.0632904 21.0194074 39.0632904"></polygon>
                    <polygon id="Fill-40" points="27.3980546 35.8632904 30.5981759 35.8632904 30.5981759 39.0632904 27.3980546 39.0632904"></polygon>
                </g>
            </g>
        </g>
    </symbol>

    <symbol id="search-result-placeholder" viewBox="0 0 120 120">
        <title>
            Empty search result placeholder image
        </title>
        <g fill="none" fill-rule="evenodd">
            <path fill="currentColor" d="M0 0h120v120H0"/>
            <path d="M0 70L72 0M0 57L59 0" stroke="#FFF" stroke-width="2" stroke-linecap="square"/>
        </g>
    </symbol>

    <symbol id="pen" viewBox="0 0 45 46">
        <title>
            Pen
        </title>
        <g fill="none" fill-rule="evenodd">
            <path fill="currentColor" d="M42.523 3.86l-.966-.966C40.002 1.34 37.952.56 35.902.56c-2.05 0-4.1.78-5.657 2.335L26.49 6.65l-1.87-1.87 2.39-2.39c.546-.547.546-1.434 0-1.98-.548-.547-1.433-.547-1.98 0L14.3 11.14c-.546.547-.546 1.434 0 1.98.274.274.633.41.99.41.358 0 .717-.136.99-.41l6.36-6.36 1.87 1.87L7.274 25.873c-.125.095-.24.203-.332.332-.12.168-.21.36-.26.575L4.04 38.266c-.13.565.06 1.124.448 1.5.012.016.022.032.036.047l1.03 1.03c.015.015.032.023.046.037.054.05.11.096.168.138.026.018.05.035.078.052.06.038.126.072.192.1.024.012.045.023.068.032.087.033.175.06.267.08h.01c.1.02.2.033.303.033.072 0 .146-.013.22-.024.03-.003.06-.003.092-.008.01-.003.02 0 .03-.003l11.597-2.533c.22-.048.42-.14.59-.264h.002l.015-.014c.12-.09.223-.196.313-.313l22.978-22.984c3.11-3.11 3.11-8.202 0-11.314zM7.403 37.92l1.835-7.984 6.225 6.227-8.06 1.758zM18.5 35.243l-8.318-8.32L26.49 10.61l8.318 8.32L18.5 35.24zm22.044-22.05l-3.756 3.76-8.32-8.32 3.757-3.757C33.2 3.9 34.507 3.36 35.902 3.36s2.7.538 3.677 1.515l.964.964c.976.975 1.513 2.28 1.513 3.677 0 1.394-.537 2.7-1.513 3.676z"/>
            <path fill="currentColor" d="M.41 43.09c-.547.548-.547 1.434 0 1.98.274.274.63.41.99.41.358 0 .716-.136.99-.41l2.09-2.09L2.5 41 .41 43.09"/>
        </g>
    </symbol>

    <symbol id="circle-with-dot" viewBox="0 0 12 12">
        <title>
            Circle with dot inside
        </title>
        <g fill="none" fill-rule="evenodd" transform="translate(1 1)">
            <circle cx="5" cy="5" r="5" stroke="currentColor"/>
            <circle cx="5" cy="5" r="3.333" fill="currentColor"/>
        </g>
    </symbol>

    <symbol id="arrow-right-fat" viewBox="0 0 16 14">
        <title>
            Arrow right fat
        </title>
        <g fill="currentColor" fill-rule="evenodd" stroke="currentColor">
            <path d="M10.23 13.027c-.12 0-.245-.035-.35-.108-.268-.186-.327-.54-.132-.79l3.907-5.08-3.907-5.076c-.195-.253-.136-.606.132-.79.266-.184.64-.128.836.124l4.163 5.41c.15.2.15.467 0 .666l-4.164 5.41c-.117.152-.3.233-.485.233"/>
            <path d="M14.395 7.617H1.72c-.33 0-.6-.253-.6-.566 0-.312.27-.564.6-.564h12.675c.33 0 .598.252.598.565 0 .314-.267.567-.598.567"/>
        </g>
    </symbol>

    <symbol id="rabbit" viewBox="0 0 71 71">
        <title>
            Rabbit
        </title>
        <g stroke="currentColor" stroke-width="3" fill="none" fill-rule="evenodd" stroke-linejoin="round">
            <path d="M35.268 21.074c1.325 0 2.832 1.06 3.674 1.65-.2-2.31.44-4.984.96-7.98 1.295-7.415 4.48-13.16 7.12-12.832 2.64.327 3.73 6.6 2.438 14.013-.74 4.24-2.1 7.93-3.622 10.253 2.273 2.08 3.04 3.94 3.04 6.994v3.024M35.268 21.074c-1.325 0-2.832 1.06-3.675 1.65.2-2.31-.438-4.984-.96-7.98-1.294-7.415-4.48-13.16-7.12-12.832-2.638.327-3.728 6.6-2.437 14.013.74 4.24 2.1 7.93 3.622 10.253-2.273 2.08-3.04 3.94-3.04 6.994v3.024M27.707 31.127h3.024M39.804 31.127h3.025M33.756 36.055h3.024"/>
            <path d="M53.414 33.677c-4.137 2.448-10.726 4.03-18.146 4.03-7.417 0-14.003-1.58-18.142-4.027M15.61 43.757v18.146c0 4.177 8.8 7.56 19.658 7.56 10.857 0 19.658-3.383 19.658-7.56V43.757"/>
            <path d="M51.902 22.793c9.944 2.223 16.634 6.377 16.634 11.134 0 7.1-14.895 12.854-33.268 12.854S2 41.028 2 33.928c0-4.757 6.69-8.91 16.634-11.134"/>
        </g>
    </symbol>

    <symbol id="hat" viewBox="0 0 74 45">
        <title>
            Hat
        </title>
        <g transform="translate(2 2)" stroke="currentColor" stroke-width="3" fill="none" fill-rule="evenodd">
            <path stroke-linecap="round" stroke-linejoin="round" d="M33.258 30.07l32.68-14.872L33.115.364.322 15.014z"/>
            <path d="M16.648 27.16s-.094 3.607.064 6.733c.16 3.127 8.592 7.55 17.258 7.55 8.665 0 16.54-5.02 16.452-7.732-.087-2.71.06-6.545.06-6.545" stroke-linecap="round" stroke-linejoin="round"/>
            <path d="M65.377 16.324v8.04" stroke-linecap="round"/>
            <ellipse cx="65.824" cy="27.159" rx="2.391" ry="2.354"/>
            <path stroke-linecap="round" stroke-linejoin="round" d="M62.2 40.453h7.477l-2.568-10.58-2.197.094-1.69 6.53"/>
        </g>
    </symbol>

    <symbol id="rocket" viewBox="0 0 54 77">
        <title>
            Rocket
        </title>
        <g fill="currentColor" fill-rule="evenodd">
            <path d="M32.983 36.523h-.002c-1.88-.878-3.31-2.437-4.02-4.388-.71-1.953-.618-4.065.26-5.947.88-1.882 2.436-3.31 4.39-4.02 1.95-.71 4.062-.618 5.946.26 3.886 1.812 5.57 6.448 3.76 10.335-1.813 3.883-6.447 5.57-10.333 3.76zm5.16-11.067c-1.074-.5-2.278-.553-3.39-.148-1.114.405-2.002 1.22-2.503 2.292-.5 1.074-.553 2.28-.15 3.39.406 1.114 1.22 2.002 2.293 2.503 2.217 1.032 4.86.07 5.893-2.144 1.033-2.217.072-4.86-2.143-5.894zM46.685 45.863c-.803 1.227-1.78 2.685-2.91 4.3.58 3.597.308 8.827-3.228 15.294-.56-1.908-1.542-4.2-3.184-6.75-.85 1.05-1.73 2.105-2.635 3.15 3.103 5.33 2.633 8.843 2.63 8.866-.156.873.296 1.738 1.095 2.11.02.01.04.02.06.025.835.358 1.805.09 2.34-.644 8.848-12.14 7.534-21.598 5.832-26.35M11.213 63.38c-.39.836-.03 1.83.808 2.22h.002c.836.39 1.83.03 2.22-.808l2.59-5.548-3.03-1.412-2.59 5.547M12.914 74.567c-.39.837-.028 1.832.81 2.222.834.39 1.83.028 2.22-.81L22.5 61.923l-3.028-1.41-6.558 14.055M22.208 70.788c-.39.837-.027 1.83.81 2.22.836.39 1.83.03 2.22-.808l3.002-6.438-3.03-1.412-3.002 6.438M5.627 49.18c2.67-6.834 6.476-10.403 9.598-12.278.51-1.905 1-3.596 1.424-5.005C11.907 33.664 3.855 38.75.253 53.287c-.216.873.2 1.77.996 2.187l.08.04c.78.364 1.722.163 2.296-.488.03-.033 2.412-2.643 8.462-3.696.218-1.366.46-2.72.72-4.046-2.992.383-5.367 1.1-7.18 1.895"/><path d="M49.503 1.26l-.017.013.016-.015s-.098-.16-.33-.365l-.033.07.026-.072c-.213-.032-.407-.02-.51-.012V.864c-1.1.016-27.018.985-34.072 53.407l-.052.115 15.874 7.4.036-.075.017.016C66.127 22.603 50.2 2.11 49.502 1.26zm-2.256 3.733c.904 1.726 2.273 5.205 2.34 10.408L37.768 9.89c4.03-3.294 7.575-4.48 9.477-4.897zM34.69 12.758l14.682 6.846c-1.027 8.842-5.84 21.35-19.956 37.418l-10.564-4.926c3.235-21.14 9.723-32.87 15.837-39.338z"/>
        </g>
    </symbol>

    <symbol id="smiley" viewBox="0 0 53 53">
        <title>
            Smiley
        </title>
        <g fill="none" fill-rule="evenodd">
            <path d="M39.174 33.598h-25.1c-.894 0-1.62-.725-1.62-1.62 0-.894.726-1.62 1.62-1.62h25.1c.895 0 1.62.726 1.62 1.62 0 .895-.725 1.62-1.62 1.62" fill="currentColor"/>
            <path d="M26.562 43.84c-3.047 0-6.022-.748-8.38-2.108-3.695-2.13-5.73-5.594-5.732-9.753 0-.895.724-1.62 1.62-1.62.894 0 1.62.724 1.62 1.618 0 3.784 2.235 5.867 4.11 6.948 3.87 2.232 9.724 2.218 13.617-.032 1.882-1.09 4.125-3.17 4.123-6.914 0-.894.723-1.62 1.618-1.62.895 0 1.62.723 1.62 1.618.003 4.126-2.035 7.578-5.74 9.72-2.375 1.373-5.367 2.134-8.426 2.142h-.05M22.86 22.416c-.49 0-.977-.224-1.295-.648-.455-.605-1.15-.953-1.908-.953-.757 0-1.452.348-1.907.953-.537.716-1.552.86-2.268.323-.715-.536-.86-1.55-.322-2.267 1.072-1.428 2.71-2.247 4.497-2.247 1.786 0 3.425.82 4.498 2.247.537.716.392 1.73-.323 2.268-.29.22-.633.326-.97.326M36.795 22.416c-.492 0-.978-.224-1.296-.648-.456-.605-1.15-.953-1.908-.953s-1.453.348-1.908.953c-.537.716-1.552.86-2.267.323-.715-.536-.86-1.55-.323-2.267 1.072-1.428 2.712-2.247 4.498-2.247 1.785 0 3.425.82 4.497 2.247.536.716.392 1.73-.324 2.268-.29.22-.632.326-.97.326" fill="currentColor"/>
            <path d="M51.068 26.784c0 13.5-10.943 24.444-24.443 24.444-13.5 0-24.445-10.944-24.445-24.444 0-13.5 10.944-24.444 24.445-24.444 13.5 0 24.443 10.944 24.443 24.444z" stroke="currentColor" stroke-width="3"/>
        </g>
    </symbol>

    <symbol id="chevron-circleless" viewBox="0 0 9 5">
        <title>
            chevron-circleless
        </title>
        <path d="M3.542 1.73L2.08.27C1.72-.09 1.14-.09.784.268s-.357.936 0 1.293l.072.073L3.72 4.487l.073.074c.14.14.312.222.492.252.29.057.602-.025.825-.25l2.934-2.925c.18-.178.268-.412.268-.646 0-.233-.09-.467-.268-.645-.357-.358-.936-.358-1.294 0L5.372 1.723l-.957.85" fill="currentColor" fill-rule="evenodd"/>
    </symbol>

    <symbol id="plus" viewBox="0 0 23 22">
        <title>
            Plus
        </title>
        <g stroke="currentColor" stroke-width="3" fill="none" fill-rule="evenodd" stroke-linecap="round">
            <path d="M2.328 11.5h18.39M11.172 20.392V2"/>
        </g>
    </symbol>

    <symbol id="pres-fullscreen" viewBox="0 0 22 22">
        <title>fullscreen</title>
        <path d="M19.12 2.046c-.72-.025-1.795-.055-3.225-.09-.54-.014-.965-.462-.95-1.002.016-.54.466-.967 1.006-.954 1.436.036 2.516.066 3.243.09.367.014.645.025.836.035.102.005.18.01.242.016.042.005.078.008.114.014.304.045.343.054.568.28.236.235.247.287.284.596l.01.118c.002.06.004.138.005.237.003.185.003.453 0 .806-.003.7-.016 1.737-.038 3.114-.008.54-.453.973-.993.966-.54-.007-.97-.45-.962-.99.02-1.372.034-2.403.038-3.093v-.135l-.18-.006zM2.135 19.13c.72.024 1.795.054 3.224.09.54.013.965.462.95 1.002-.015.54-.466.967-1.005.953-1.435-.036-2.516-.066-3.243-.09-.366-.013-.645-.025-.836-.035-.102-.005-.182-.01-.243-.015l-.114-.013c-.304-.045-.343-.055-.57-.28-.234-.236-.246-.288-.282-.597l-.01-.117-.006-.238c-.002-.185-.003-.453 0-.806.003-.698.016-1.735.038-3.113.01-.54.453-.97.994-.965.54.007.97.45.962.99-.022 1.372-.035 2.404-.04 3.094v.133l.18.006z" fill-rule="nonzero" fill="currentColor"/>
    </symbol>

    <symbol id="pres-minimize" viewBox="0 0 22 22">
        <title>minimize</title>
        <path d="M17.19 4.224c.72.025 1.795.055 3.225.09.54.014.965.463.95 1.003-.016.54-.466.966-1.006.953-1.436-.036-2.516-.066-3.243-.09-.367-.014-.645-.025-.836-.035-.1-.005-.18-.01-.242-.016l-.114-.013c-.303-.045-.342-.055-.568-.28-.235-.236-.247-.288-.283-.597-.005-.038-.007-.075-.01-.117-.003-.06-.005-.14-.006-.238-.003-.185-.003-.453 0-.806.003-.7.016-1.736.038-3.114.01-.54.453-.973.993-.966.54.007.97.45.963.99-.02 1.372-.034 2.403-.038 3.094v.134l.18.006zM4.175 17.14c-.72-.024-1.794-.054-3.224-.09-.54-.013-.965-.462-.95-1.002.016-.54.466-.966 1.006-.953 1.435.036 2.515.066 3.242.09.367.014.645.025.836.035.102.005.182.01.243.016.042.003.078.007.114.013.305.044.344.053.57.28.234.234.246.286.282.595.005.038.007.075.01.117.003.06.005.14.006.238.003.185.003.453 0 .806-.003.698-.016 1.736-.038 3.113-.008.54-.453.972-.993.965-.54-.007-.97-.45-.962-.99.02-1.372.034-2.403.038-3.094v-.133l-.18-.006z" fill-rule="nonzero" fill="currentColor"/>
    </symbol>

    <symbol id="pres-next" viewBox="0 0 11 18">
        <title>next-slide</title>
        <path d="M5.552 8.92C4.455 7.746 2.802 6 .602 3.684-.232 2.808-.195 1.427.68.598c.88-.83 2.264-.792 3.096.083 2.212 2.325 3.87 4.08 4.98 5.268.56.6.982 1.057 1.268 1.375.153.17.272.305.36.41.06.07.11.135.16.2.408.55.454.627.454 1.34 0 .744-.064.844-.495 1.39-.052.067-.107.13-.17.2-.09.1-.21.227-.366.386-.29.295-.712.72-1.273 1.274-1.11 1.097-2.77 2.716-4.98 4.86-.868.84-2.255.82-3.097-.045-.843-.865-.824-2.246.043-3.086 2.202-2.134 3.853-3.744 4.95-4.828l.214-.21-.275-.295z" fill-rule="nonzero" fill="currentColor"/>
    </symbol>

    <symbol id="pres-prev" viewBox="0 0 11 18">
        <title>prev-slide</title>
        <path d="M5.448 8.92C6.545 7.746 8.198 6 10.398 3.684c.833-.875.796-2.256-.08-3.085-.88-.83-2.264-.792-3.096.083-2.212 2.325-3.87 4.08-4.98 5.268-.56.6-.982 1.057-1.268 1.375-.153.17-.272.305-.36.41-.06.07-.11.135-.16.2C.047 8.483 0 8.56 0 9.273c0 .744.064.844.495 1.39.052.067.107.13.17.2.09.1.21.227.366.386.29.295.712.72 1.273 1.274 1.11 1.097 2.77 2.716 4.98 4.86.868.84 2.255.82 3.097-.045.843-.865.824-2.246-.043-3.086-2.202-2.134-3.853-3.744-4.95-4.828l-.214-.21.275-.295z" fill-rule="nonzero" fill="currentColor"/>
    </symbol>

    <symbol id="pres-pause" viewBox="0 0 17 18">
        <title>pause</title>
        <path d="M2.37 0h1.92C5.43 0 6.35.922 6.35 2.06v13.88c0 1.138-.922 2.06-2.06 2.06H2.37c-1.137 0-2.058-.922-2.058-2.06V2.06C.312.92 1.232 0 2.372 0zm9.963 0h1.92c1.137 0 2.06.922 2.06 2.06v13.88c0 1.138-.923 2.06-2.06 2.06h-1.92c-1.137 0-2.06-.922-2.06-2.06V2.06c0-1.138.923-2.06 2.06-2.06z" fill-rule="nonzero" fill="currentColor"/>
    </symbol>

    <symbol id="pres-play" viewBox="0 0 17 18">
        <title>play</title>
        <path d="M15.37 10.56c.513-.27.774-.696.784-1.273.01-.578-.236-1.01-.74-1.3L2.597.266C2.11-.036 1.6-.052 1.072.218.56.508.298.94.288 1.518L.026 16.498c-.01.576.236 1.018.74 1.323.25.13.504.196.758.2.27.006.525-.06.765-.197l13.08-7.265z" fill-rule="nonzero" fill="currentColor"/>
    </symbol>

</svg>
